<svg width="136" height="25" viewBox="0 0 136 25" fill="none" xmlns="http://www.w3.org/2000/svg">
<path d="M10.9281 4.09363L8.48696 9.04315L3.02529 9.83941C2.04585 9.98147 1.65333 11.189 2.36361 11.8805L6.315 15.731L5.38043 21.1702C5.2122 22.1534 6.24771 22.8899 7.115 22.4301L12.001 19.8618L16.8869 22.4301C17.7542 22.8861 18.7897 22.1534 18.6215 21.1702L17.6869 15.731L21.6383 11.8805C22.3486 11.189 21.9561 9.98147 20.9766 9.83941L15.515 9.04315L13.0739 4.09363C12.6365 3.21139 11.3692 3.20017 10.9281 4.09363Z" fill="#800080"/>
<path d="M38.9279 4.09363L36.4867 9.04315L31.0251 9.83941C30.0456 9.98147 29.6531 11.189 30.3634 11.8805L34.3148 15.731L33.3802 21.1702C33.212 22.1534 34.2475 22.8899 35.1148 22.4301L40.0008 19.8618L44.8867 22.4301C45.754 22.8861 46.7895 22.1534 46.6213 21.1702L45.6867 15.731L49.6381 11.8805C50.3484 11.189 49.9559 9.98147 48.9764 9.83941L43.5148 9.04315L41.0737 4.09363C40.6363 3.21139 39.369 3.20017 38.9279 4.09363Z" fill="#800080"/>
<path d="M66.9279 4.09363L64.4867 9.04315L59.0251 9.83941C58.0456 9.98147 57.6531 11.189 58.3634 11.8805L62.3148 15.731L61.3802 21.1702C61.212 22.1534 62.2475 22.8899 63.1148 22.4301L68.0008 19.8618L72.8867 22.4301C73.754 22.8861 74.7895 22.1534 74.6213 21.1702L73.6867 15.731L77.6381 11.8805C78.3484 11.189 77.9559 9.98147 76.9764 9.83941L71.5148 9.04315L69.0737 4.09363C68.6363 3.21139 67.369 3.20017 66.9279 4.09363Z" fill="#800080"/>
<path d="M94.9279 4.09363L92.4867 9.04315L87.0251 9.83941C86.0456 9.98147 85.6531 11.189 86.3634 11.8805L90.3148 15.731L89.3802 21.1702C89.212 22.1534 90.2475 22.8899 91.1148 22.4301L96.0008 19.8618L100.887 22.4301C101.754 22.8861 102.79 22.1534 102.621 21.1702L101.687 15.731L105.638 11.8805C106.349 11.189 105.956 9.98147 104.977 9.83941L99.5148 9.04315L97.0737 4.09363C96.6363 3.21139 95.369 3.20017 94.9279 4.09363Z" fill="#800080"/>
<path d="M122.928 4.09363L120.487 9.04315L115.025 9.83941C114.046 9.98147 113.653 11.189 114.363 11.8805L118.315 15.731L117.38 21.1702C117.212 22.1534 118.248 22.8899 119.115 22.4301L124.001 19.8618L128.887 22.4301C129.754 22.8861 130.79 22.1534 130.621 21.1702L129.687 15.731L133.638 11.8805C134.349 11.189 133.956 9.98147 132.977 9.83941L127.515 9.04315L125.074 4.09363C124.636 3.21139 123.369 3.20017 122.928 4.09363Z" fill="#800080"/>
</svg>
