<svg width="136" height="25" viewBox="0 0 136 25" fill="none" xmlns="http://www.w3.org/2000/svg">
<path d="M10.9271 4.09168L8.48599 9.04119L3.02432 9.83745C2.04488 9.97951 1.65236 11.187 2.36264 11.8785L6.31402 15.729L5.37946 21.1682C5.21123 22.1514 6.24674 22.8879 7.11403 22.4281L12 19.8598L16.8859 22.4281C17.7532 22.8841 18.7887 22.1514 18.6205 21.1682L17.6859 15.729L21.6373 11.8785C22.3476 11.187 21.9551 9.97951 20.9756 9.83745L15.514 9.04119L13.0729 4.09168C12.6355 3.20944 11.3682 3.19822 10.9271 4.09168Z" fill="url(#paint0_linear_1045_40)"/>
<path d="M10.9271 4.09168L8.48599 9.04119L3.02432 9.83745C2.04488 9.97951 1.65236 11.187 2.36264 11.8785L6.31402 15.729L5.37946 21.1682C5.21123 22.1514 6.24674 22.8879 7.11403 22.4281L12 19.8598L16.8859 22.4281C17.7532 22.8841 18.7887 22.1514 18.6205 21.1682L17.6859 15.729L21.6373 11.8785C22.3476 11.187 21.9551 9.97951 20.9756 9.83745L15.514 9.04119L13.0729 4.09168C12.6355 3.20944 11.3682 3.19822 10.9271 4.09168Z" fill="url(#paint1_linear_1045_40)"/>
<path d="M10.9271 4.09168L8.48599 9.04119L3.02432 9.83745C2.04488 9.97951 1.65236 11.187 2.36264 11.8785L6.31402 15.729L5.37946 21.1682C5.21123 22.1514 6.24674 22.8879 7.11403 22.4281L12 19.8598L16.8859 22.4281C17.7532 22.8841 18.7887 22.1514 18.6205 21.1682L17.6859 15.729L21.6373 11.8785C22.3476 11.187 21.9551 9.97951 20.9756 9.83745L15.514 9.04119L13.0729 4.09168C12.6355 3.20944 11.3682 3.19822 10.9271 4.09168Z" fill="url(#paint2_linear_1045_40)"/>
<path d="M38.9272 4.09168L36.486 9.04119L31.0244 9.83745C30.0449 9.97951 29.6524 11.187 30.3627 11.8785L34.3141 15.729L33.3795 21.1682C33.2113 22.1514 34.2468 22.8879 35.1141 22.4281L40.0001 19.8598L44.886 22.4281C45.7533 22.8841 46.7888 22.1514 46.6206 21.1682L45.686 15.729L49.6374 11.8785C50.3477 11.187 49.9552 9.97951 48.9757 9.83745L43.5141 9.04119L41.073 4.09168C40.6356 3.20944 39.3683 3.19822 38.9272 4.09168Z" fill="url(#paint3_linear_1045_40)"/>
<path d="M38.9272 4.09168L36.486 9.04119L31.0244 9.83745C30.0449 9.97951 29.6524 11.187 30.3627 11.8785L34.3141 15.729L33.3795 21.1682C33.2113 22.1514 34.2468 22.8879 35.1141 22.4281L40.0001 19.8598L44.886 22.4281C45.7533 22.8841 46.7888 22.1514 46.6206 21.1682L45.686 15.729L49.6374 11.8785C50.3477 11.187 49.9552 9.97951 48.9757 9.83745L43.5141 9.04119L41.073 4.09168C40.6356 3.20944 39.3683 3.19822 38.9272 4.09168Z" fill="url(#paint4_linear_1045_40)"/>
<path d="M38.9272 4.09168L36.486 9.04119L31.0244 9.83745C30.0449 9.97951 29.6524 11.187 30.3627 11.8785L34.3141 15.729L33.3795 21.1682C33.2113 22.1514 34.2468 22.8879 35.1141 22.4281L40.0001 19.8598L44.886 22.4281C45.7533 22.8841 46.7888 22.1514 46.6206 21.1682L45.686 15.729L49.6374 11.8785C50.3477 11.187 49.9552 9.97951 48.9757 9.83745L43.5141 9.04119L41.073 4.09168C40.6356 3.20944 39.3683 3.19822 38.9272 4.09168Z" fill="url(#paint5_linear_1045_40)"/>
<path d="M66.9272 4.09168L64.486 9.04119L59.0244 9.83745C58.0449 9.97951 57.6524 11.187 58.3627 11.8785L62.3141 15.729L61.3795 21.1682C61.2113 22.1514 62.2468 22.8879 63.1141 22.4281L68.0001 19.8598L72.886 22.4281C73.7533 22.8841 74.7888 22.1514 74.6206 21.1682L73.686 15.729L77.6374 11.8785C78.3477 11.187 77.9552 9.97951 76.9757 9.83745L71.5141 9.04119L69.073 4.09168C68.6356 3.20944 67.3683 3.19822 66.9272 4.09168Z" fill="url(#paint6_linear_1045_40)"/>
<path d="M66.9272 4.09168L64.486 9.04119L59.0244 9.83745C58.0449 9.97951 57.6524 11.187 58.3627 11.8785L62.3141 15.729L61.3795 21.1682C61.2113 22.1514 62.2468 22.8879 63.1141 22.4281L68.0001 19.8598L72.886 22.4281C73.7533 22.8841 74.7888 22.1514 74.6206 21.1682L73.686 15.729L77.6374 11.8785C78.3477 11.187 77.9552 9.97951 76.9757 9.83745L71.5141 9.04119L69.073 4.09168C68.6356 3.20944 67.3683 3.19822 66.9272 4.09168Z" fill="url(#paint7_linear_1045_40)"/>
<path d="M66.9272 4.09168L64.486 9.04119L59.0244 9.83745C58.0449 9.97951 57.6524 11.187 58.3627 11.8785L62.3141 15.729L61.3795 21.1682C61.2113 22.1514 62.2468 22.8879 63.1141 22.4281L68.0001 19.8598L72.886 22.4281C73.7533 22.8841 74.7888 22.1514 74.6206 21.1682L73.686 15.729L77.6374 11.8785C78.3477 11.187 77.9552 9.97951 76.9757 9.83745L71.5141 9.04119L69.073 4.09168C68.6356 3.20944 67.3683 3.19822 66.9272 4.09168Z" fill="url(#paint8_linear_1045_40)"/>
<path d="M94.9272 4.09168L92.486 9.04119L87.0244 9.83745C86.0449 9.97951 85.6524 11.187 86.3627 11.8785L90.3141 15.729L89.3795 21.1682C89.2113 22.1514 90.2467 22.8879 91.114 22.4281L96.0001 19.8598L100.886 22.4281C101.753 22.8841 102.789 22.1514 102.62 21.1682L101.686 15.729L105.637 11.8785C106.348 11.187 105.955 9.97951 104.976 9.83745L99.5141 9.04119L97.073 4.09168C96.6356 3.20944 95.3683 3.19822 94.9272 4.09168Z" fill="url(#paint9_linear_1045_40)"/>
<path d="M94.9272 4.09168L92.486 9.04119L87.0244 9.83745C86.0449 9.97951 85.6524 11.187 86.3627 11.8785L90.3141 15.729L89.3795 21.1682C89.2113 22.1514 90.2467 22.8879 91.114 22.4281L96.0001 19.8598L100.886 22.4281C101.753 22.8841 102.789 22.1514 102.62 21.1682L101.686 15.729L105.637 11.8785C106.348 11.187 105.955 9.97951 104.976 9.83745L99.5141 9.04119L97.073 4.09168C96.6356 3.20944 95.3683 3.19822 94.9272 4.09168Z" fill="url(#paint10_linear_1045_40)"/>
<path d="M94.9272 4.09168L92.486 9.04119L87.0244 9.83745C86.0449 9.97951 85.6524 11.187 86.3627 11.8785L90.3141 15.729L89.3795 21.1682C89.2113 22.1514 90.2467 22.8879 91.114 22.4281L96.0001 19.8598L100.886 22.4281C101.753 22.8841 102.789 22.1514 102.62 21.1682L101.686 15.729L105.637 11.8785C106.348 11.187 105.955 9.97951 104.976 9.83745L99.5141 9.04119L97.073 4.09168C96.6356 3.20944 95.3683 3.19822 94.9272 4.09168Z" fill="url(#paint11_linear_1045_40)"/>
<path d="M122.927 4.09168L120.486 9.04119L115.024 9.83745C114.045 9.97951 113.652 11.187 114.362 11.8785L118.314 15.729L117.379 21.1682C117.211 22.1514 118.247 22.8879 119.114 22.4281L124 19.8598L128.886 22.4281C129.753 22.8841 130.789 22.1514 130.62 21.1682L129.686 15.729L133.637 11.8785C134.348 11.187 133.955 9.97951 132.976 9.83745L127.514 9.04119L125.073 4.09168C124.635 3.20944 123.368 3.19822 122.927 4.09168Z" fill="url(#paint12_linear_1045_40)"/>
<path d="M122.927 4.09168L120.486 9.04119L115.024 9.83745C114.045 9.97951 113.652 11.187 114.362 11.8785L118.314 15.729L117.379 21.1682C117.211 22.1514 118.247 22.8879 119.114 22.4281L124 19.8598L128.886 22.4281C129.753 22.8841 130.789 22.1514 130.62 21.1682L129.686 15.729L133.637 11.8785C134.348 11.187 133.955 9.97951 132.976 9.83745L127.514 9.04119L125.073 4.09168C124.635 3.20944 123.368 3.19822 122.927 4.09168Z" fill="url(#paint13_linear_1045_40)"/>
<path d="M122.927 4.09168L120.486 9.04119L115.024 9.83745C114.045 9.97951 113.652 11.187 114.362 11.8785L118.314 15.729L117.379 21.1682C117.211 22.1514 118.247 22.8879 119.114 22.4281L124 19.8598L128.886 22.4281C129.753 22.8841 130.789 22.1514 130.62 21.1682L129.686 15.729L133.637 11.8785C134.348 11.187 133.955 9.97951 132.976 9.83745L127.514 9.04119L125.073 4.09168C124.635 3.20944 123.368 3.19822 122.927 4.09168Z" fill="url(#paint14_linear_1045_40)"/>
<defs>
<linearGradient id="paint0_linear_1045_40" x1="12" y1="3.42578" x2="12" y2="22.5683" gradientUnits="userSpaceOnUse">
<stop stop-color="#F34E60"/>
<stop offset="1" stop-color="#F34E60"/>
</linearGradient>
<linearGradient id="paint1_linear_1045_40" x1="12" y1="3.42578" x2="12" y2="22.5683" gradientUnits="userSpaceOnUse">
<stop offset="0.38" stop-color="#D641A7"/>
<stop offset="1" stop-color="#FF4A17" stop-opacity="0"/>
</linearGradient>
<linearGradient id="paint2_linear_1045_40" x1="12" y1="3.42578" x2="12" y2="22.5683" gradientUnits="userSpaceOnUse">
<stop stop-color="#23B7E3"/>
<stop offset="1" stop-color="#FF4A17" stop-opacity="0"/>
</linearGradient>
<linearGradient id="paint3_linear_1045_40" x1="40" y1="3.42578" x2="40" y2="22.5683" gradientUnits="userSpaceOnUse">
<stop stop-color="#F34E60"/>
<stop offset="1" stop-color="#F34E60"/>
</linearGradient>
<linearGradient id="paint4_linear_1045_40" x1="40" y1="3.42578" x2="40" y2="22.5683" gradientUnits="userSpaceOnUse">
<stop offset="0.38" stop-color="#D641A7"/>
<stop offset="1" stop-color="#FF4A17" stop-opacity="0"/>
</linearGradient>
<linearGradient id="paint5_linear_1045_40" x1="40" y1="3.42578" x2="40" y2="22.5683" gradientUnits="userSpaceOnUse">
<stop stop-color="#23B7E3"/>
<stop offset="1" stop-color="#FF4A17" stop-opacity="0"/>
</linearGradient>
<linearGradient id="paint6_linear_1045_40" x1="68" y1="3.42578" x2="68" y2="22.5683" gradientUnits="userSpaceOnUse">
<stop stop-color="#F34E60"/>
<stop offset="1" stop-color="#F34E60"/>
</linearGradient>
<linearGradient id="paint7_linear_1045_40" x1="68" y1="3.42578" x2="68" y2="22.5683" gradientUnits="userSpaceOnUse">
<stop offset="0.38" stop-color="#D641A7"/>
<stop offset="1" stop-color="#FF4A17" stop-opacity="0"/>
</linearGradient>
<linearGradient id="paint8_linear_1045_40" x1="68" y1="3.42578" x2="68" y2="22.5683" gradientUnits="userSpaceOnUse">
<stop stop-color="#23B7E3"/>
<stop offset="1" stop-color="#FF4A17" stop-opacity="0"/>
</linearGradient>
<linearGradient id="paint9_linear_1045_40" x1="96.0001" y1="3.42578" x2="96.0001" y2="22.5683" gradientUnits="userSpaceOnUse">
<stop stop-color="#F34E60"/>
<stop offset="1" stop-color="#F34E60"/>
</linearGradient>
<linearGradient id="paint10_linear_1045_40" x1="96.0001" y1="3.42578" x2="96.0001" y2="22.5683" gradientUnits="userSpaceOnUse">
<stop offset="0.38" stop-color="#D641A7"/>
<stop offset="1" stop-color="#FF4A17" stop-opacity="0"/>
</linearGradient>
<linearGradient id="paint11_linear_1045_40" x1="96.0001" y1="3.42578" x2="96.0001" y2="22.5683" gradientUnits="userSpaceOnUse">
<stop stop-color="#23B7E3"/>
<stop offset="1" stop-color="#FF4A17" stop-opacity="0"/>
</linearGradient>
<linearGradient id="paint12_linear_1045_40" x1="124" y1="3.42578" x2="124" y2="22.5683" gradientUnits="userSpaceOnUse">
<stop stop-color="#F34E60"/>
<stop offset="1" stop-color="#F34E60"/>
</linearGradient>
<linearGradient id="paint13_linear_1045_40" x1="124" y1="3.42578" x2="124" y2="22.5683" gradientUnits="userSpaceOnUse">
<stop offset="0.38" stop-color="#D641A7"/>
<stop offset="1" stop-color="#FF4A17" stop-opacity="0"/>
</linearGradient>
<linearGradient id="paint14_linear_1045_40" x1="124" y1="3.42578" x2="124" y2="22.5683" gradientUnits="userSpaceOnUse">
<stop stop-color="#23B7E3"/>
<stop offset="1" stop-color="#FF4A17" stop-opacity="0"/>
</linearGradient>
</defs>
</svg>
