<svg width="162" height="181" viewBox="0 0 162 181" fill="none" xmlns="http://www.w3.org/2000/svg">
<g clip-path="url(#clip0_31_30)">
<path d="M156.833 178.434C156.833 177.053 157.954 175.932 159.335 175.932C160.716 175.932 161.837 177.053 161.837 178.434C161.837 179.814 160.716 180.935 159.335 180.935C157.954 180.935 156.833 179.814 156.833 178.434Z" fill="#800080"/>
<path d="M117.65 178.434C117.65 177.053 118.771 175.932 120.152 175.932C121.533 175.932 122.653 177.053 122.653 178.434C122.653 179.814 121.533 180.935 120.152 180.935C118.771 180.935 117.65 179.814 117.65 178.434Z" fill="#800080"/>
<path d="M78.4697 178.434C78.4697 177.053 79.5905 175.932 80.9713 175.932C82.352 175.932 83.4729 177.053 83.4729 178.434C83.4729 179.814 82.352 180.935 80.9713 180.935C79.5879 180.935 78.4697 179.814 78.4697 178.434Z" fill="#800080"/>
<path d="M39.2861 178.434C39.2861 177.053 40.407 175.932 41.7877 175.932C43.1685 175.932 44.2894 177.053 44.2894 178.434C44.2894 179.814 43.1685 180.935 41.7877 180.935C40.407 180.935 39.2861 179.814 39.2861 178.434Z" fill="#800080"/>
<path d="M0.102539 178.434C0.102539 177.053 1.22342 175.932 2.60417 175.932C3.98492 175.932 5.10579 177.053 5.10579 178.434C5.10579 179.814 3.98492 180.935 2.60417 180.935C1.22079 180.935 0.102539 179.814 0.102539 178.434Z" fill="#800080"/>
<path d="M156.833 143.419C156.833 142.038 157.954 140.917 159.335 140.917C160.716 140.917 161.837 142.038 161.837 143.419C161.837 144.799 160.716 145.92 159.335 145.92C157.954 145.92 156.833 144.799 156.833 143.419Z" fill="#800080"/>
<path d="M117.65 143.419C117.65 142.038 118.771 140.917 120.152 140.917C121.533 140.917 122.653 142.038 122.653 143.419C122.653 144.799 121.533 145.92 120.152 145.92C118.771 145.92 117.65 144.799 117.65 143.419Z" fill="#800080"/>
<path d="M78.4697 143.419C78.4697 142.038 79.5905 140.917 80.9713 140.917C82.352 140.917 83.4729 142.038 83.4729 143.419C83.4729 144.799 82.352 145.92 80.9713 145.92C79.5879 145.92 78.4697 144.799 78.4697 143.419Z" fill="#800080"/>
<path d="M39.2861 143.419C39.2861 142.038 40.407 140.917 41.7877 140.917C43.1685 140.917 44.2894 142.038 44.2894 143.419C44.2894 144.799 43.1685 145.92 41.7877 145.92C40.407 145.92 39.2861 144.799 39.2861 143.419Z" fill="#800080"/>
<path d="M0.102539 143.419C0.102539 142.038 1.22342 140.917 2.60417 140.917C3.98492 140.917 5.10579 142.038 5.10579 143.419C5.10579 144.799 3.98492 145.92 2.60417 145.92C1.22079 145.92 0.102539 144.799 0.102539 143.419Z" fill="#800080"/>
<path d="M156.833 108.404C156.833 107.023 157.954 105.902 159.335 105.902C160.716 105.902 161.837 107.023 161.837 108.404C161.837 109.785 160.716 110.906 159.335 110.906C157.954 110.906 156.833 109.787 156.833 108.404Z" fill="#800080"/>
<path d="M120.152 110.906C121.533 110.906 122.653 109.786 122.653 108.404C122.653 107.022 121.533 105.902 120.152 105.902C118.77 105.902 117.65 107.022 117.65 108.404C117.65 109.786 118.77 110.906 120.152 110.906Z" fill="#800080"/>
<path d="M80.9684 110.906C82.35 110.906 83.47 109.786 83.47 108.404C83.47 107.022 82.35 105.902 80.9684 105.902C79.5868 105.902 78.4668 107.022 78.4668 108.404C78.4668 109.786 79.5868 110.906 80.9684 110.906Z" fill="#800080"/>
<path d="M39.2861 108.404C39.2861 107.023 40.407 105.902 41.7877 105.902C43.1685 105.902 44.2894 107.023 44.2894 108.404C44.2894 109.785 43.1685 110.906 41.7877 110.906C40.407 110.906 39.2861 109.787 39.2861 108.404Z" fill="#800080"/>
<path d="M0.102539 108.404C0.102539 107.023 1.22342 105.902 2.60417 105.902C3.98492 105.902 5.10579 107.023 5.10579 108.404C5.10579 109.785 3.98492 110.906 2.60417 110.906C1.22079 110.906 0.102539 109.787 0.102539 108.404Z" fill="#800080"/>
<path d="M156.833 73.3913C156.833 72.0105 157.954 70.8896 159.335 70.8896C160.716 70.8896 161.837 72.0105 161.837 73.3913C161.837 74.772 160.716 75.893 159.335 75.893C157.954 75.8904 156.833 74.772 156.833 73.3913Z" fill="#800080"/>
<path d="M120.152 75.893C121.533 75.893 122.653 74.7729 122.653 73.3913C122.653 72.0097 121.533 70.8896 120.152 70.8896C118.77 70.8896 117.65 72.0097 117.65 73.3913C117.65 74.7729 118.77 75.893 120.152 75.893Z" fill="#800080"/>
<path d="M80.9684 75.893C82.35 75.893 83.47 74.7729 83.47 73.3913C83.47 72.0097 82.35 70.8896 80.9684 70.8896C79.5868 70.8896 78.4668 72.0097 78.4668 73.3913C78.4668 74.7729 79.5868 75.893 80.9684 75.893Z" fill="#800080"/>
<path d="M39.2861 73.3913C39.2861 72.0105 40.407 70.8896 41.7877 70.8896C43.1685 70.8896 44.2894 72.0105 44.2894 73.3913C44.2894 74.772 43.1685 75.893 41.7877 75.893C40.407 75.893 39.2861 74.772 39.2861 73.3913Z" fill="#800080"/>
<path d="M0.102539 73.3913C0.102539 72.0105 1.22342 70.8896 2.60417 70.8896C3.98492 70.8896 5.10579 72.0105 5.10579 73.3913C5.10579 74.772 3.98492 75.893 2.60417 75.893C1.22079 75.8904 0.102539 74.772 0.102539 73.3913Z" fill="#800080"/>
<path d="M156.833 38.3766C156.833 36.9959 157.954 35.875 159.335 35.875C160.716 35.875 161.837 36.9959 161.837 38.3766C161.837 39.7574 160.716 40.8782 159.335 40.8782C157.954 40.8756 156.833 39.7574 156.833 38.3766Z" fill="#800080"/>
<path d="M120.152 40.8782C121.533 40.8782 122.653 39.7582 122.653 38.3766C122.653 36.995 121.533 35.875 120.152 35.875C118.77 35.875 117.65 36.995 117.65 38.3766C117.65 39.7582 118.77 40.8782 120.152 40.8782Z" fill="#800080"/>
<path d="M80.9684 40.8782C82.35 40.8782 83.47 39.7582 83.47 38.3766C83.47 36.995 82.35 35.875 80.9684 35.875C79.5868 35.875 78.4668 36.995 78.4668 38.3766C78.4668 39.7582 79.5868 40.8782 80.9684 40.8782Z" fill="#800080"/>
<path d="M39.2861 38.3766C39.2861 36.9959 40.407 35.875 41.7877 35.875C43.1685 35.875 44.2894 36.9959 44.2894 38.3766C44.2894 39.7574 43.1685 40.8782 41.7877 40.8782C40.407 40.8782 39.2861 39.7574 39.2861 38.3766Z" fill="#800080"/>
<path d="M0.102539 38.3766C0.102539 36.9959 1.22342 35.875 2.60417 35.875C3.98492 35.875 5.10579 36.9959 5.10579 38.3766C5.10579 39.7574 3.98492 40.8782 2.60417 40.8782C1.22079 40.8756 0.102539 39.7574 0.102539 38.3766Z" fill="#800080"/>
<path d="M156.833 3.36198C156.833 1.98123 157.954 0.860352 159.335 0.860352C160.716 0.860352 161.837 1.98123 161.837 3.36198C161.837 4.74273 160.716 5.8636 159.335 5.8636C157.954 5.8636 156.833 4.74273 156.833 3.36198Z" fill="#800080"/>
<path d="M117.65 3.36198C117.65 1.98123 118.771 0.860352 120.152 0.860352C121.533 0.860352 122.653 1.98123 122.653 3.36198C122.653 4.74273 121.533 5.8636 120.152 5.8636C118.771 5.8636 117.65 4.74273 117.65 3.36198Z" fill="#800080"/>
<path d="M78.4697 3.36198C78.4697 1.98123 79.5905 0.860352 80.9713 0.860352C82.352 0.860352 83.4729 1.98123 83.4729 3.36198C83.4729 4.74273 82.352 5.8636 80.9713 5.8636C79.5879 5.8636 78.4697 4.74273 78.4697 3.36198Z" fill="#800080"/>
<path d="M39.2861 3.36198C39.2861 1.98123 40.407 0.860352 41.7877 0.860352C43.1685 0.860352 44.2894 1.98123 44.2894 3.36198C44.2894 4.74273 43.1685 5.8636 41.7877 5.8636C40.407 5.8636 39.2861 4.74273 39.2861 3.36198Z" fill="#800080"/>
<path d="M0.102539 3.36198C0.102539 1.98123 1.22342 0.860352 2.60417 0.860352C3.98492 0.860352 5.10579 1.98123 5.10579 3.36198C5.10579 4.74273 3.98492 5.8636 2.60417 5.8636C1.22079 5.8636 0.102539 4.74273 0.102539 3.36198Z" fill="#800080"/>
</g>
<defs>
<clipPath id="clip0_31_30">
<rect width="162" height="181" fill="white"/>
</clipPath>
</defs>
</svg>
